<svg width="132" height="148" viewBox="0 0 132 148" fill="none" xmlns="http://www.w3.org/2000/svg">
<g clip-path="url(#clip0_1_37)">
<g opacity="0.5">
<path d="M73.5429 112.044C70.9427 110.418 67.5048 111.211 65.8789 113.811C64.2533 116.411 65.0462 119.849 67.6466 121.475C70.2467 123.101 73.6848 122.308 75.3105 119.708C76.9359 117.107 76.143 113.669 73.5429 112.044ZM69.4538 118.584C68.4476 117.955 68.1407 116.625 68.7697 115.618C69.3987 114.612 70.7293 114.305 71.7354 114.934C72.7418 115.563 73.0487 116.894 72.4195 117.9C71.7903 118.906 70.4599 119.213 69.4538 118.584Z" fill="#C49C65"/>
<path d="M75.8175 108.405C71.2107 105.525 65.1198 106.93 62.24 111.536C59.3598 116.143 60.7647 122.234 65.3715 125.114C69.9781 127.994 76.0689 126.589 78.9489 121.983C81.8289 117.376 80.4243 111.285 75.8175 108.405ZM66.2751 123.669C62.4655 121.287 61.3037 116.25 63.6853 112.44C66.0671 108.63 71.1041 107.469 74.9139 109.85C78.7237 112.232 79.8853 117.269 77.5037 121.079C75.1219 124.888 70.0847 126.05 66.2751 123.669Z" fill="#C49C65"/>
<path d="M83.8491 126.361C84.0658 126.062 84.2754 125.75 84.472 125.436L84.4944 125.4L83.213 124.604C83.3931 124.315 83.5585 124.02 83.7163 123.723L85.0511 124.433C85.2255 124.105 85.3907 123.768 85.5418 123.43L84.1623 122.813C84.301 122.502 84.43 122.19 84.5458 121.874L85.963 122.395C86.0912 122.047 86.2088 121.69 86.3126 121.334L84.8592 120.91C84.9536 120.584 85.0391 120.257 85.1106 119.928L86.588 120.25C86.667 119.889 86.7344 119.519 86.7884 119.152L85.2901 118.931C85.3391 118.596 85.3761 118.261 85.4018 117.925L86.9131 118.042C86.9418 117.673 86.9584 117.297 86.9617 116.927L85.4479 116.913C85.451 116.574 85.4392 116.237 85.4193 115.9L86.9342 115.811C86.9125 115.441 86.8776 115.067 86.8307 114.699L85.3279 114.891C85.2851 114.555 85.2286 114.222 85.1632 113.89L86.6522 113.597C86.5803 113.233 86.4951 112.867 86.3991 112.509L84.9341 112.903C84.8463 112.576 84.7484 112.252 84.6388 111.932L86.0729 111.441C85.9525 111.09 85.8186 110.739 85.6746 110.397L84.276 110.985C84.1452 110.674 84.0071 110.365 83.855 110.062L85.2061 109.381C85.0389 109.05 84.8583 108.72 84.6692 108.401L83.3651 109.174C83.1931 108.883 83.0125 108.597 82.82 108.318L84.0658 107.458C83.8548 107.152 83.6306 106.85 83.399 106.559L82.2153 107.502C82.0057 107.238 81.7856 106.982 81.5567 106.732L82.6729 105.71C82.4223 105.436 82.1591 105.167 81.8902 104.912L80.8503 106.004C80.607 105.772 80.3513 105.55 80.0899 105.334L81.0546 104.169C80.7697 103.933 80.4723 103.703 80.1713 103.487L79.288 104.713C79.023 104.522 78.7528 104.335 78.4717 104.16C78.4638 104.155 78.4555 104.15 78.4476 104.145L79.2444 102.865C78.9291 102.669 78.604 102.481 78.2778 102.308L77.5669 103.642C77.2665 103.482 76.9629 103.333 76.6562 103.196L77.2749 101.816C76.9361 101.665 76.588 101.523 76.2403 101.394L75.7181 102.811C75.3992 102.694 75.0773 102.591 74.7541 102.497L75.1786 101.044C74.8226 100.94 74.458 100.847 74.0955 100.768L73.7721 102.245C73.4413 102.173 73.109 102.114 72.7757 102.065L72.9975 100.567C72.6309 100.512 72.258 100.47 71.8882 100.441L71.7695 101.953C71.4322 101.926 71.0946 101.909 70.7577 101.906L70.7727 100.392C70.4022 100.388 70.0269 100.397 69.6565 100.419L69.7448 101.934C69.4073 101.954 69.0703 101.982 68.7354 102.025L68.5449 100.522C68.177 100.568 67.8062 100.628 67.4422 100.7L67.7349 102.189C67.403 102.254 67.0736 102.33 66.747 102.418L66.3542 100.952C65.9961 101.048 65.6366 101.158 65.2857 101.278L65.7766 102.712C65.4567 102.821 65.1413 102.943 64.8291 103.074L64.2409 101.675C63.8989 101.819 63.5575 101.977 63.2258 102.143L63.9056 103.495C63.6038 103.646 63.3086 103.812 63.0168 103.985L62.2446 102.68C61.9251 102.869 61.6079 103.072 61.302 103.282L62.1607 104.529C61.8825 104.72 61.6105 104.922 61.3447 105.133L60.4026 103.949C60.1122 104.18 59.8262 104.424 59.5523 104.674L60.5737 105.791C60.3251 106.018 60.0807 106.252 59.8461 106.497L58.7538 105.457C58.4983 105.725 58.2485 106.006 58.0113 106.292L59.1747 107.257C58.9598 107.516 58.7526 107.783 58.5536 108.059L57.3279 107.175C57.1158 107.469 56.9103 107.774 56.7171 108.084L56.707 108.1L57.9853 108.899C57.805 109.188 57.6396 109.483 57.4814 109.78L56.1476 109.068C55.973 109.395 55.8072 109.733 55.6557 110.07L57.0346 110.69C56.8957 111 56.7653 111.312 56.6491 111.628L55.2331 111.105C55.1045 111.453 54.9865 111.81 54.8823 112.166L56.3349 112.591C56.2399 112.917 56.1545 113.244 56.0824 113.573L54.6051 113.249C54.5256 113.611 54.4576 113.98 54.4032 114.347L55.9011 114.569C55.8517 114.904 55.8147 115.24 55.7883 115.576L54.277 115.456C54.2478 115.826 54.2309 116.201 54.2271 116.572L55.7404 116.588C55.7372 116.926 55.7487 117.264 55.7684 117.601L54.2533 117.688C54.2746 118.058 54.309 118.432 54.3555 118.8L55.859 118.61C55.9013 118.946 55.9569 119.279 56.0219 119.611L54.5328 119.902C54.604 120.266 54.6885 120.632 54.7846 120.99L56.2502 120.598C56.3375 120.925 56.4346 121.249 56.5439 121.569L55.1094 122.059C55.2294 122.41 55.3629 122.761 55.5064 123.103L56.9058 122.516C57.0364 122.828 57.1739 123.137 57.3259 123.44L55.9738 124.119C56.1405 124.451 56.3209 124.781 56.5096 125.101L57.8147 124.329C57.9863 124.62 58.1667 124.906 58.3588 125.186L57.1116 126.044C57.3222 126.35 57.5462 126.653 57.7773 126.944L58.962 126.002C59.1712 126.266 59.3916 126.523 59.6201 126.774L58.5024 127.794C58.7526 128.068 59.0157 128.337 59.2842 128.593L60.3259 127.501C60.569 127.734 60.8239 127.956 61.0851 128.174L60.1187 129.336C60.4033 129.573 60.7004 129.803 61.0016 130.02L61.8863 128.795C62.1563 128.99 62.4313 129.18 62.7178 129.359C62.7205 129.361 62.7231 129.362 62.7259 129.364L61.9278 130.643C62.2426 130.839 62.5677 131.027 62.8939 131.202L63.6064 129.869C63.9066 130.029 64.2098 130.178 64.5165 130.316L63.8962 131.694C64.2346 131.847 64.5825 131.989 64.9302 132.118L65.454 130.702C65.7729 130.82 66.0946 130.922 66.4178 131.017L65.9912 132.469C66.3473 132.574 66.7117 132.667 67.0742 132.747L67.3996 131.27C67.7304 131.342 68.0625 131.403 68.3954 131.452L68.1722 132.95C68.5386 133.005 68.9119 133.047 69.2813 133.077L69.4018 131.565C69.7391 131.592 70.0767 131.61 70.4138 131.614L70.3968 133.127C70.7672 133.132 71.1428 133.123 71.5128 133.102L71.4267 131.587C71.7642 131.567 72.101 131.539 72.4361 131.497L72.6248 133.001C72.9924 132.954 73.3637 132.895 73.7274 132.824L73.4368 131.335C73.7687 131.27 74.0981 131.194 74.4247 131.107L74.8157 132.573C75.1742 132.477 75.5337 132.368 75.8848 132.249L75.3958 130.814C75.7156 130.705 76.031 130.583 76.3432 130.453L76.9294 131.852C77.2716 131.709 77.6134 131.552 77.9451 131.385L77.2667 130.033C77.5687 129.881 77.8645 129.717 78.1563 129.545L78.9271 130.85C79.2472 130.661 79.5647 130.459 79.8703 130.249L79.013 129.001C79.2915 128.81 79.564 128.609 79.8301 128.398L80.7707 129.584C81.0615 129.353 81.3479 129.109 81.6219 128.859L80.6017 127.741C80.8507 127.514 81.095 127.281 81.33 127.035L82.4213 128.077C82.6774 127.809 82.9276 127.529 83.1649 127.244L82.0027 126.277C82.2178 126.018 82.4251 125.752 82.6248 125.476L83.8491 126.361ZM64.0727 127.191C58.3207 123.595 56.5666 115.99 60.1628 110.238C63.7589 104.486 71.3641 102.732 77.1162 106.328C82.8681 109.924 84.6223 117.529 81.0262 123.281C77.43 129.033 69.8246 130.787 64.0727 127.191Z" fill="#C49C65"/>
</g>
<g opacity="0.7">
<path d="M49.3082 46.7715C43.6274 43.22 36.1434 44.9462 32.592 50.6266C29.0403 56.3074 30.7665 63.7914 36.4471 67.3428C42.1279 70.8943 49.6116 69.1683 53.1633 63.4877C56.715 57.8071 54.989 50.323 49.3082 46.7715Z" fill="#C49C65"/>
<path d="M52.4345 41.771C44.0057 36.5015 32.861 39.0716 27.5913 47.5006C22.3216 55.9296 24.8921 67.0743 33.3211 72.3438C41.7501 77.6135 52.8947 75.0432 58.1643 66.6142C63.434 58.1852 60.8635 47.0407 52.4345 41.771ZM34.1735 70.9801C26.4966 66.1806 24.1556 56.0303 28.9552 48.3534C33.7547 40.6763 43.905 38.3355 51.5819 43.1349C59.2588 47.9344 61.5998 58.0849 56.8002 65.7618C52.0009 73.4387 41.8506 75.7795 34.1735 70.9801Z" fill="#C49C65"/>
<path d="M57.4084 33.8152C44.5927 25.8031 27.6478 29.7108 19.6358 42.5267C11.6236 55.3425 15.5317 72.2872 28.3473 80.2992C41.1631 88.3115 58.1079 84.4035 66.1199 71.5879C74.1321 58.7723 70.2242 41.8274 57.4084 33.8152ZM30.3367 77.1172C19.2757 70.2019 15.903 55.5773 22.818 44.5163C29.7331 33.4553 44.3577 30.0825 55.419 36.9976C66.48 43.9126 69.8529 58.5375 62.9377 69.5985C56.0224 80.6593 41.3977 84.0323 30.3367 77.1172Z" fill="#C49C65"/>
<path d="M77.0959 78.347C78.2284 76.5267 79.194 74.6497 80.0041 72.7342L82.6483 73.8543C83.5286 71.7766 84.2494 69.6145 84.7907 67.4283L81.9941 66.7357C82.5027 64.6732 82.8409 62.589 83.0168 60.4999L85.8946 60.7444C86.0851 58.5017 86.0993 56.2241 85.9364 53.975L83.0552 54.1835C82.9016 52.0774 82.5907 49.9874 82.1134 47.9351L84.9223 47.2817C84.4117 45.0859 83.7242 42.9141 82.8793 40.8268L80.1999 41.9114C79.4119 39.9616 78.4687 38.0711 77.3784 36.2556L79.8526 34.7664C78.6888 32.8325 77.3624 30.9773 75.9102 29.253L73.7079 31.1073C72.364 29.5083 70.8883 27.9982 69.2754 26.6017L71.1513 24.4321C69.4718 22.9799 67.6581 21.6421 65.7609 20.456L65.7053 20.4212L64.1864 22.8508C62.3668 21.717 60.4902 20.7505 58.5749 19.9393L59.6964 17.2963C57.6195 16.415 55.4579 15.693 53.2711 15.1503L52.5773 17.9462C50.5154 17.4364 48.4307 17.0975 46.3418 16.9205L46.5877 14.0428C44.3459 13.851 42.0683 13.8358 39.8183 13.9975L40.0253 16.8791C37.9191 17.0314 35.8287 17.3406 33.776 17.8166L33.1244 15.0081C30.9285 15.5175 28.7565 16.2038 26.6684 17.0477L27.7515 19.7272C25.8015 20.5145 23.9102 21.4567 22.0943 22.5461L20.6064 20.0709C18.6716 21.2339 16.8158 22.5593 15.0907 24.0103L16.9442 26.214C15.3444 27.5573 13.8339 29.0322 12.4365 30.6444L10.2676 28.767C8.80949 30.4513 7.46657 32.2709 6.27618 34.1748L6.25303 34.2118L8.68214 35.7304C7.5476 37.5496 6.58022 39.4258 5.76781 41.3407L3.12585 40.2179C2.24316 42.2947 1.51991 44.4561 0.976206 46.6421L3.7717 47.3375C3.2607 49.3994 2.92071 51.4835 2.743 53.5726L-0.134565 53.325C-0.32731 55.5675 -0.343978 57.8449 -0.18373 60.0944L2.69832 59.8889C2.84963 61.9951 3.15692 64.0856 3.63177 66.1384L0.823259 66.7883C1.33142 68.9849 2.01649 71.1575 2.85957 73.2456L5.53912 72.1641C6.32533 74.1147 7.26691 76.0062 8.35534 77.8227L5.87932 79.3091C7.04087 81.2444 8.36551 83.101 9.81567 84.827L12.0205 82.9747C13.3627 84.5753 14.837 86.0866 16.4484 87.4846L14.5695 89.6529C16.2593 91.1171 18.0846 92.4651 19.995 93.6595L20.0135 93.6711L21.5217 91.2369C23.3434 92.3751 25.2229 93.3455 27.1406 94.1602L26.0166 96.8011C28.0925 97.6848 30.2534 98.4091 32.4394 98.9542L33.1362 96.1595C35.1979 96.6716 37.2817 97.0124 39.3707 97.1915L39.1215 100.069C41.3633 100.263 43.6409 100.281 45.8911 100.121L45.6872 97.239C47.7934 97.0889 49.8843 96.7835 51.9375 96.3096L52.5856 99.1179C54.7818 98.611 56.9545 97.9271 59.0441 97.0853L57.9642 94.4049C59.9152 93.6197 61.8069 92.6792 63.6241 91.5915L65.1094 94.0684C67.0455 92.9076 68.9027 91.584 70.6295 90.1349L68.778 87.9288C70.3793 86.5873 71.8912 85.1136 73.2901 83.5031L75.4581 85.3837C76.9284 83.6884 78.2814 81.8572 79.4797 79.9403L79.526 79.8662L77.0959 78.347ZM24.0707 87.1397C7.48344 76.7697 2.42534 54.8379 12.7956 38.2505C23.1659 21.663 45.0976 16.6051 61.6848 26.9752C78.2721 37.3452 83.3302 59.277 72.9601 75.8644C62.5896 92.4519 40.6579 97.51 24.0707 87.1397Z" fill="#C49C65"/>
</g>
<g opacity="0.7">
<path d="M122.401 124.313C131.992 130.309 144.673 127.384 150.669 117.793C156.665 108.202 153.741 95.5208 144.15 89.5248C134.559 83.5286 121.877 86.4533 115.881 96.0442C109.885 105.635 112.81 118.316 122.401 124.313ZM143.537 90.5046C152.588 96.1626 155.348 108.129 149.689 117.18C144.031 126.231 132.064 128.991 123.014 123.333C113.963 117.674 111.203 105.707 116.861 96.6566C122.52 87.6059 134.486 84.8461 143.537 90.5046Z" fill="#C49C65"/>
<path d="M123.994 121.765C132.18 126.882 143.004 124.386 148.122 116.2C153.239 108.014 150.743 97.1901 142.557 92.0725C134.371 86.9545 123.547 89.4506 118.429 97.6369C113.311 105.823 115.808 116.647 123.994 121.765ZM141.944 93.0522C149.59 97.8323 151.921 107.941 147.141 115.587C142.361 123.233 132.252 125.565 124.607 120.785C116.961 116.004 114.629 105.895 119.409 98.2492C124.189 90.6034 134.298 88.272 141.944 93.0522Z" fill="#C49C65"/>
<path d="M127.18 116.669C132.556 120.03 139.664 118.391 143.025 113.014C146.387 107.638 144.747 100.529 139.371 97.1685C133.995 93.8073 126.886 95.4466 123.525 100.823C120.164 106.199 121.803 113.307 127.18 116.669ZM138.758 98.148C143.594 101.171 145.069 107.565 142.045 112.401C139.022 117.237 132.628 118.712 127.792 115.689C122.956 112.665 121.481 106.271 124.505 101.435C127.528 96.5994 133.922 95.1246 138.758 98.148Z" fill="#C49C65"/>
<path d="M129.324 113.239C132.814 115.421 137.413 114.361 139.596 110.87C141.778 107.379 140.717 102.78 137.227 100.598C133.737 98.4161 129.137 99.4765 126.955 102.967C124.773 106.458 125.834 111.057 129.324 113.239Z" fill="#C49C65"/>
<path d="M164.286 134.151C165.745 132.487 167.084 130.684 168.266 128.794L168.32 128.707L163.173 125.519C164.487 123.408 165.546 121.21 166.365 118.96L172.058 121.039C172.821 118.948 173.418 116.779 173.831 114.593L167.866 113.465C168.319 111.056 168.517 108.623 168.464 106.203L174.536 106.073C174.489 103.853 174.26 101.618 173.856 99.4313L167.886 100.534C167.444 98.1416 166.75 95.7988 165.826 93.5419L171.448 91.2375C170.604 89.1768 169.585 87.1723 168.422 85.2792L163.25 88.4586C161.988 86.4018 160.512 84.4579 158.818 82.6726L163.208 78.4996C161.678 76.8904 160.002 75.3923 158.226 74.047L154.567 78.8784C153.726 78.2409 152.855 77.6299 151.943 77.06C150.766 76.3238 149.558 75.6751 148.333 75.094L150.933 69.6179C148.92 68.6625 146.818 67.8663 144.683 67.2513L143.003 73.0822C140.64 72.4041 138.237 71.9802 135.829 71.8092L136.264 65.7543C134.049 65.5952 131.802 65.6162 129.586 65.8166L130.133 71.8638C127.706 72.0844 125.309 72.5595 122.981 73.2701L121.205 67.4575C119.077 68.1076 116.988 68.9353 114.995 69.9177L117.68 75.3629C115.509 76.4312 113.439 77.7256 111.508 79.2407L107.761 74.4743C106.012 75.8493 104.363 77.3793 102.86 79.0216L107.334 83.1164C105.9 84.6805 104.582 86.3882 103.418 88.2508C103.269 88.4893 103.134 88.7324 102.991 88.9731L97.7758 85.88C96.6386 87.7977 95.6515 89.8157 94.8424 91.8774L100.488 94.0931C99.5885 96.3892 98.9416 98.7419 98.548 101.117L92.5646 100.12C92.1998 102.311 92.0117 104.551 92.006 106.776L98.0782 106.792C98.0733 109.234 98.325 111.663 98.8175 114.043L92.8656 115.274C93.316 117.451 93.9467 119.607 94.7404 121.682L100.411 119.515C101.276 121.78 102.378 123.959 103.703 126.018L98.6022 129.307C99.8095 131.179 101.179 132.965 102.673 134.614L107.171 130.54C108.779 132.319 110.589 133.953 112.595 135.407L109.038 140.317C109.803 140.87 110.597 141.406 111.401 141.909C112.482 142.584 113.604 143.216 114.735 143.786L117.463 138.376C119.674 139.489 121.956 140.353 124.277 140.965L122.726 146.822C124.877 147.391 127.09 147.788 129.307 148L129.887 141.956C132.322 142.188 134.763 142.162 137.173 141.891L137.85 147.931C140.057 147.683 142.262 147.254 144.403 146.655L142.768 140.81C145.108 140.156 147.379 139.256 149.547 138.13L152.349 143.518C154.326 142.49 156.23 141.294 158.011 139.961L154.374 135.101C156.302 133.661 158.1 132.012 159.729 130.157L164.286 134.151ZM149.247 81.3719C163.333 90.1785 167.629 108.803 158.822 122.89C150.016 136.976 131.39 141.272 117.304 132.465C103.218 123.659 98.9221 105.033 107.729 90.947C116.535 76.8606 135.16 72.5653 149.247 81.3719Z" fill="#C49C65"/>
</g>
<g opacity="0.5">
<path d="M137.385 -11.7293C125.902 -18.9088 110.718 -15.4069 103.539 -3.92324C96.3588 7.56063 99.8605 22.7445 111.344 29.924C122.828 37.1035 138.012 33.6018 145.192 22.1177C152.371 10.634 148.869 -4.54981 137.385 -11.7293ZM113.555 26.3881C104.02 20.4276 101.113 7.82142 107.074 -1.71306C113.035 -11.2471 125.641 -14.1544 135.175 -8.19389C144.709 -2.23301 147.617 10.373 141.656 19.9071C135.695 29.4416 123.089 32.349 113.555 26.3881Z" fill="#C49C65"/>
<path d="M133.724 -5.87343C125.469 -11.0341 114.555 -8.51682 109.394 -0.26209C104.233 7.99285 106.75 18.9072 115.005 24.0681C123.26 29.2289 134.175 26.7119 139.335 18.4569C144.497 10.202 141.979 -0.712571 133.724 -5.87343ZM115.696 22.963C108.05 18.1832 105.719 8.07429 110.499 0.428665C115.279 -7.21696 125.388 -9.54838 133.033 -4.76855C140.679 0.011493 143.01 10.1206 138.231 17.766C133.451 25.4118 123.342 27.743 115.696 22.963Z" fill="#C49C65"/>
<path d="M141.322 -18.0274C126.366 -27.3779 106.591 -22.8172 97.2402 -7.86068C87.8895 7.09606 92.4502 26.8712 107.407 36.2219C122.363 45.5726 142.139 41.0117 151.489 26.0552C160.84 11.0986 156.279 -8.67655 141.322 -18.0274ZM108.098 35.117C93.7503 26.1476 89.3754 7.1775 98.3453 -7.16993C107.315 -21.5169 126.285 -25.8918 140.632 -16.9224C154.979 -7.95249 159.354 11.0172 150.385 25.3644C141.415 39.7118 122.445 44.0869 108.098 35.117Z" fill="#C49C65"/>
<path d="M128.82 1.97112C124.884 -0.489278 119.699 0.706595 117.239 4.64213C114.779 8.57767 115.975 13.7627 119.91 16.2229C123.846 18.6835 129.031 17.4876 131.491 13.5521C133.951 9.61675 132.756 4.43171 128.82 1.97112Z" fill="#C49C65"/>
<path d="M158.25 38.8571C159.845 37.0377 161.308 35.0676 162.599 33.0012L162.657 32.9086L160.51 31.5785C162.096 29.0285 163.375 26.3735 164.365 23.657L166.744 24.5257C167.578 22.2416 168.23 19.8722 168.682 17.4835L166.18 17.0107C166.728 14.0971 166.967 11.155 166.902 8.22908L169.452 8.17485C169.4 5.74817 169.15 3.30606 168.708 0.916139L166.205 1.3786C165.67 -1.51298 164.831 -4.34384 163.715 -7.07131L166.077 -8.0393C165.154 -10.2907 164.041 -12.4812 162.769 -14.55L160.601 -13.2168C159.075 -15.7046 157.29 -18.0557 155.241 -20.2147L157.073 -21.9568C155.402 -23.715 153.57 -25.3518 151.629 -26.8217L150.1 -24.802C149.084 -25.5722 148.032 -26.3099 146.931 -26.9984C145.508 -27.8878 144.05 -28.6716 142.57 -29.3735L143.657 -31.6635C141.458 -32.7074 139.161 -33.5773 136.828 -34.2492L136.125 -31.8069C133.267 -32.6272 130.36 -33.1396 127.448 -33.3462L127.63 -35.8848C125.209 -36.0586 122.754 -36.0355 120.333 -35.8165L120.563 -33.2794C117.629 -33.0129 114.733 -32.4387 111.92 -31.58L111.173 -34.0229C108.848 -33.3123 106.564 -32.4078 104.387 -31.3342L105.513 -29.051C102.888 -27.7592 100.384 -26.1943 98.0499 -24.3623L96.4822 -26.3556C94.5718 -24.8532 92.7705 -23.1817 91.1284 -21.3877L93.0006 -19.6741C91.2681 -17.7838 89.6758 -15.7201 88.2687 -13.4695C88.0888 -13.1815 87.9261 -12.8878 87.754 -12.5973L85.5723 -13.8913C84.3293 -11.7957 83.2506 -9.5904 82.3661 -7.33697L84.7282 -6.4098C83.6404 -3.63277 82.8582 -0.786879 82.3821 2.08541L79.8781 1.66823C79.4792 4.0618 79.2739 6.50879 79.2676 8.94095L81.8149 8.94746C81.8094 11.8981 82.1133 14.8342 82.7085 17.7099L80.2067 18.2277C80.699 20.6068 81.3884 22.9634 82.2556 25.2317L84.6335 24.3224C85.6791 27.0606 87.0111 29.6961 88.6126 32.1849L86.4755 33.5632C87.7947 35.6086 89.2911 37.5596 90.9233 39.3614L92.8072 37.6549C94.752 39.8056 96.9406 41.7808 99.3661 43.539L97.8785 45.5926C98.7139 46.1976 99.5828 46.7828 100.461 47.3322C101.643 48.0709 102.869 48.7614 104.106 49.3849L105.246 47.1242C107.919 48.4704 110.678 49.5153 113.484 50.2552L112.837 52.702C115.186 53.3237 117.605 53.7567 120.026 53.9889L120.269 51.4542C123.213 51.7338 126.164 51.703 129.077 51.3752L129.361 53.9127C131.774 53.6424 134.184 53.1734 136.524 52.519L135.838 50.0688C138.666 49.2785 141.411 48.1899 144.032 46.8293L145.208 49.0904C147.367 47.9675 149.448 46.6601 151.394 45.2045L149.869 43.1667C152.201 41.4255 154.375 39.4314 156.345 37.1872L158.25 38.8571ZM159.624 31.0295L157.409 29.6571C158.862 27.3232 160.032 24.8927 160.937 22.4059L163.385 23.2996C162.42 25.9505 161.172 28.5415 159.624 31.0295ZM105.943 38.5634C89.6951 28.4056 84.7408 6.92313 94.8984 -9.32474C105.056 -25.5724 126.539 -30.5269 142.787 -20.3691C159.034 -10.2113 163.989 11.2714 153.831 27.5188C143.673 43.7667 122.19 48.7214 105.943 38.5634ZM165.157 16.8173L162.596 16.3335C163.097 13.6704 163.315 10.9815 163.257 8.30727L165.861 8.25182C165.923 11.1056 165.691 13.9755 165.157 16.8173ZM165.18 1.56811L162.619 2.04154C162.13 -0.603478 161.363 -3.19325 160.341 -5.68797L162.751 -6.67567C163.84 -4.01481 164.659 -1.253 165.18 1.56811ZM159.714 -12.6709L157.494 -11.3064C156.1 -13.5794 154.468 -15.7274 152.596 -17.7003L154.485 -19.4962C156.483 -17.3906 158.225 -15.0973 159.714 -12.6709ZM146.378 -26.1145C147.453 -25.4426 148.479 -24.7228 149.471 -23.9713L147.897 -21.8942C146.968 -22.5992 146.005 -23.2745 144.997 -23.9047C143.695 -24.7188 142.36 -25.4359 141.005 -26.0781L142.123 -28.4321C143.568 -27.747 144.99 -26.9821 146.378 -26.1145ZM135.837 -30.805L135.115 -28.3011C132.504 -29.0506 129.848 -29.5189 127.187 -29.708L127.373 -32.3065C130.214 -32.105 133.049 -31.605 135.837 -30.805ZM120.657 -32.2417L120.891 -29.6475C118.208 -29.4038 115.559 -28.8785 112.985 -28.0929L112.224 -30.5834C114.969 -31.4216 117.795 -31.9815 120.657 -32.2417ZM105.974 -28.1161L107.126 -25.7796C104.727 -24.5987 102.439 -23.1685 100.306 -21.4939L98.6946 -23.5424C100.971 -25.3295 103.414 -26.8562 105.974 -28.1161ZM89.153 -12.9166C90.5258 -15.1124 92.0795 -17.1259 93.7697 -18.9699L95.6919 -17.2106C94.1069 -15.4818 92.65 -13.5938 91.3628 -11.5349C91.1981 -11.2713 91.049 -11.0024 90.8914 -10.7363L88.6505 -12.0654C88.8185 -12.3492 88.9773 -12.6357 89.153 -12.9166ZM85.6986 -6.02898L88.1241 -5.07684C87.1305 -2.53947 86.4156 0.0606669 85.9807 2.68537L83.4103 2.25703C83.8746 -0.544786 84.6376 -3.32019 85.6986 -6.02898ZM82.8566 8.9505L85.4614 8.9574C85.4561 11.6562 85.7342 14.3415 86.2785 16.9717L83.7285 17.4991C83.1479 14.6935 82.8511 11.8293 82.8566 8.9505ZM85.6066 23.9505L88.0396 23.0201C88.9956 25.5235 90.2136 27.933 91.678 30.2081L89.4885 31.6201C87.9261 29.1926 86.6266 26.6217 85.6066 23.9505ZM93.5799 36.9554L95.511 35.2061C97.2885 37.1721 99.2891 38.9779 101.506 40.5851L99.9774 42.6951C97.6115 40.9801 95.4766 39.0533 93.5799 36.9554ZM105.715 46.1938L106.888 43.8672C109.331 45.0972 111.853 46.052 114.418 46.7281L113.751 49.2476C111.014 48.5258 108.322 47.5066 105.715 46.1938ZM120.369 50.4171L120.618 47.8239C123.309 48.0798 126.008 48.0518 128.671 47.752L128.961 50.3401C126.119 50.6598 123.24 50.6901 120.369 50.4171ZM135.558 49.0655L134.856 46.5571C137.442 45.8339 139.953 44.8383 142.349 43.5938L143.551 45.905C140.994 47.2325 138.316 48.2943 135.558 49.0655ZM149.245 42.3326L147.684 40.2465C149.815 38.6554 151.801 36.8333 153.601 34.7828L155.561 36.5003C153.64 38.6895 151.519 40.6344 149.245 42.3326Z" fill="#C49C65"/>
</g>
</g>
<defs>
<clipPath id="clip0_1_37">
<rect width="132" height="148" fill="white"/>
</clipPath>
</defs>
</svg>
