<svg width="24" height="20" viewBox="0 0 24 20" fill="none" xmlns="http://www.w3.org/2000/svg">
<path d="M11.0489 2.92705C11.3483 2.00574 12.6517 2.00574 12.9511 2.92705L14.0206 6.21885C14.1545 6.63087 14.5385 6.90983 14.9717 6.90983H18.4329C19.4016 6.90983 19.8044 8.14945 19.0207 8.71885L16.2205 10.7533C15.87 11.0079 15.7234 11.4593 15.8572 11.8713L16.9268 15.1631C17.2261 16.0844 16.1717 16.8506 15.388 16.2812L12.5878 14.2467C12.2373 13.9921 11.7627 13.9921 11.4122 14.2467L8.61204 16.2812C7.82833 16.8506 6.77385 16.0844 7.0732 15.1631L8.14277 11.8713C8.27665 11.4593 8.12999 11.0079 7.7795 10.7533L4.97933 8.71885C4.19562 8.14945 4.59839 6.90983 5.56712 6.90983H9.02832C9.46154 6.90983 9.8455 6.63087 9.97937 6.21885L11.0489 2.92705Z" fill="#E4AF1B"/>
</svg>
