<svg width="60" height="60" viewBox="0 0 60 60" fill="none" xmlns="http://www.w3.org/2000/svg">
<path d="M30 60C46.5685 60 60 46.5685 60 30C60 13.4315 46.5685 0 30 0C13.4315 0 0 13.4315 0 30C0 46.5685 13.4315 60 30 60Z" fill="#F4F4F4"/>
<path d="M48.8468 51.6811V53.3411C43.6963 57.5058 37.1396 59.9999 29.9998 59.9999C22.8608 59.9999 16.3034 57.5058 11.1535 53.3424V51.6811C11.1535 42.7128 18.4239 35.4418 27.3921 35.4418H32.6082C41.5765 35.4418 48.8468 42.7128 48.8468 51.6811Z" fill="#C49C65"/>
<path d="M30 31.0534C35.5035 31.0534 39.9649 26.592 39.9649 21.0885C39.9649 15.585 35.5035 11.1236 30 11.1236C24.4965 11.1236 20.0351 15.585 20.0351 21.0885C20.0351 26.592 24.4965 31.0534 30 31.0534Z" fill="#C49C65"/>
</svg>
